<svg width="23" height="23" viewBox="0 0 23 23" fill="none" xmlns="http://www.w3.org/2000/svg">
<g id="Icon">
<path fill-rule="evenodd" clip-rule="evenodd" d="M0.87868 3C1.44129 2.43739 2.20435 2.12132 3 2.12132H10C10.5523 2.12132 11 2.56904 11 3.12132C11 3.6736 10.5523 4.12132 10 4.12132H3C2.73478 4.12132 2.48043 4.22668 2.29289 4.41421C2.10536 4.60175 2 4.8561 2 5.12132V19.1213C2 19.3865 2.10536 19.6409 2.29289 19.8284C2.48043 20.016 2.73478 20.1213 3 20.1213H17C17.2652 20.1213 17.5196 20.016 17.7071 19.8284C17.8946 19.6409 18 19.3865 18 19.1213V12.1213C18 11.569 18.4477 11.1213 19 11.1213C19.5523 11.1213 20 11.569 20 12.1213V19.1213C20 19.917 19.6839 20.68 19.1213 21.2426C18.5587 21.8053 17.7957 22.1213 17 22.1213H3C2.20435 22.1213 1.44129 21.8053 0.87868 21.2426C0.31607 20.68 0 19.917 0 19.1213V5.12132C0 4.32567 0.31607 3.56261 0.87868 3Z" fill="black"/>
<path fill-rule="evenodd" clip-rule="evenodd" d="M19 2C18.7026 2 18.4174 2.11814 18.2071 2.32843L8.90296 11.6326L8.37437 13.747L10.4888 13.2184L19.7929 3.91421C20.0032 3.70392 20.1213 3.41871 20.1213 3.12132C20.1213 2.82393 20.0032 2.53872 19.7929 2.32843C19.5826 2.11814 19.2974 2 19 2ZM16.7929 0.914214C17.3783 0.328852 18.1722 0 19 0C19.8278 0 20.6217 0.328852 21.2071 0.914214C21.7925 1.49957 22.1213 2.29349 22.1213 3.12132C22.1213 3.94915 21.7925 4.74307 21.2071 5.32843L11.7071 14.8284C11.5789 14.9566 11.4184 15.0475 11.2425 15.0915L7.24254 16.0915C6.90176 16.1767 6.54127 16.0768 6.29289 15.8284C6.04451 15.58 5.94466 15.2196 6.02986 14.8788L7.02986 10.8788C7.07382 10.703 7.16473 10.5424 7.29289 10.4142L16.7929 0.914214Z" fill="black"/>
</g>
</svg>
