<svg width="32" height="32" viewBox="0 0 32 32" fill="none" xmlns="http://www.w3.org/2000/svg">
<g id="vector">
<path fill-rule="evenodd" clip-rule="evenodd" d="M10.4671 13H4.39C3.49829 12.9932 2.64016 13.3172 2.00442 13.9007C1.36866 14.4843 1.00735 15.2796 1 16.1118V27.8888C1.0165 29.621 2.53394 31.0131 4.39 30.9985H10.4671C11.3588 31.0055 12.217 30.6816 12.8528 30.098C13.4886 29.5145 13.8499 28.7191 13.8571 27.8868V16.1118C13.8499 15.2796 13.4886 14.4843 12.8528 13.9007C12.217 13.3172 11.3588 12.9932 10.4671 13Z" stroke="#FDFDFD" stroke-width="2" stroke-linecap="round" stroke-linejoin="round"/>
<path fill-rule="evenodd" clip-rule="evenodd" d="M10.4671 1.00121H4.39C2.57127 0.954131 1.05484 2.28974 1 3.98696V6.01479C1.05484 7.71203 2.57127 9.04764 4.39 9.00055H10.4671C12.2858 9.04764 13.8023 7.71203 13.8571 6.01479V3.98696C13.8023 2.28974 12.2858 0.954131 10.4671 1.00121Z" stroke="#FDFDFD" stroke-width="2" stroke-linecap="round" stroke-linejoin="round"/>
<path fill-rule="evenodd" clip-rule="evenodd" d="M21.5329 18.9999H27.6079C28.4999 19.0073 29.3586 18.6836 29.9948 18.1C30.631 17.5162 30.9927 16.7207 31 15.8882V4.11307C30.9927 3.2809 30.6314 2.48553 29.9956 1.90195C29.3599 1.31838 28.5016 0.994408 27.61 1.00133H21.5329C20.6412 0.994408 19.783 1.31838 19.1472 1.90195C18.5114 2.48553 18.1501 3.2809 18.1429 4.11307V15.8882C18.1501 16.7203 18.5114 17.5156 19.1472 18.0992C19.783 18.6827 20.6412 19.0067 21.5329 18.9999Z" stroke="#FDFDFD" stroke-width="2" stroke-linecap="round" stroke-linejoin="round"/>
<path fill-rule="evenodd" clip-rule="evenodd" d="M21.5329 30.9987H27.6079C29.4274 31.0469 30.9451 29.711 31 28.013V25.9851C30.9451 24.2879 29.4286 22.9524 27.61 22.9994H21.5329C19.7142 22.9524 18.1977 24.2879 18.1429 25.9851V28.011C18.1964 29.709 19.7134 31.0457 21.5329 30.9987Z" stroke="#FDFDFD" stroke-width="2" stroke-linecap="round" stroke-linejoin="round"/>
</g>
</svg>
